<svg xmlns="http://www.w3.org/2000/svg" viewBox="0 0 529.2 116.3"  xmlns:v="https://vecta.io/nano"><circle cx="59.5" cy="58.2" r="52.8" fill="#f44b34"/><path d="M76.1 27.9c-2.6-2.7-6.2-4-10.8-4l-20.4-.1-4.4 10.6H53l-8.4 9.1v32.4l-.1.1.1.1v10.3L39 92.5h28.5l12.6-13.6V38.8c0-.1.1-6.5-4-10.9zM68 58.2l-11.4 12v-6.6l11.4-12v6.6zM56.6 34.4h4.6c1.4 0 3.3-.1 4.8 1.4s2.1 3.9 2.1 7.6v5.5l-11.4 12-.1-26.5zM49.1 81l5.1-5.5L68 60.8V81H49.1zm137.6-48.5c-7.3-6.4-16.9-9.6-28.8-9.6h-19.5l.1 70.8h21.3c11.3 0 20.5-3.2 27.4-9.6s10.5-15 10.5-25.8-3.7-19.4-11-25.8zm3.6 25.9c0 8.6-2.8 15.3-8.6 20.5s-13.6 7.9-23.2 7.9h-12.8V30h12.8c9.6 0 17.4 2.6 23.2 7.9s8.6 11.8 8.6 20.5zm42.5-19.7c-7.2-.1-14.2 2.8-19.1 8.2-5.1 5.3-7.8 12.5-7.7 19.8a27.76 27.76 0 0 0 7.6 19.9 25.48 25.48 0 0 0 19.1 8.2h.3c7.2.1 14.1-2.8 19-8.2 5-5.4 7.7-12.5 7.6-19.9.1-7.3-2.6-14.5-7.7-19.8-4.9-5.4-11.8-8.4-19.1-8.2zm19.1 27.8c.1 5.5-1.8 10.9-5.5 15-3 3.4-7.2 5.6-11.7 6h-1.9c-5.3.2-10.4-2-13.9-6-3.7-4.1-5.8-9.5-5.7-15-.2-5.5 1.8-10.8 5.5-14.9 3.6-4 8.7-6.2 14-6 5.2-.2 10.3 2.1 13.7 6 3.7 4.1 5.7 9.5 5.5 14.9zm41 18.8c-1.7 1.5-3.9 2.3-6.2 2.2-4.8 0-6.9-2.4-6.9-7.8V46.5h15.4v-7.1h-15.4V27.9h-7.3v11.5H265v7.2h7.4v33.5c0 4.7 1.2 8.3 3.7 10.7s6 3.7 10.6 3.7 8.1-1.3 10.7-3.8l1.3-1.2-4.2-5.8-1.6 1.6zm53.7-38c-1.7-1.9-3.6-3.6-5.8-4.9-4.1-2.6-8.9-4-13.8-3.9-7.2-.1-14.2 2.8-19.1 8.2-5 5.3-7.8 12.5-7.6 19.8a27.76 27.76 0 0 0 7.6 19.9c4.9 5.3 11.8 8.3 19 8.2 4.9.1 9.6-1.3 13.8-3.9 2.1-1.4 4.1-3 5.7-4.9v7.8h7.3V17.2l-7.2.7.1 29.4zm-17.1 40.3h-1.9c-5.3.2-10.4-2-13.9-6-3.7-4.1-5.8-9.5-5.7-15-.2-5.5 1.8-10.8 5.5-14.9 3.5-4 8.6-6.1 14-6 5.2-.1 10.3 2.1 13.7 6 3.7 4.1 5.6 9.4 5.5 14.9.1 5.5-1.8 10.9-5.5 15-3 3.5-7.2 5.6-11.7 6zm80.2-40.4c-1.7-1.9-3.6-3.6-5.7-4.9-4.1-2.6-8.9-4-13.8-3.9-7.2-.1-14.2 2.8-19 8.2-5.1 5.3-7.8 12.4-7.7 19.8a27.76 27.76 0 0 0 7.6 19.9c4.9 5.3 11.8 8.3 19 8.2 4.9.1 9.7-1.3 13.8-3.9 2.2-1.4 4.1-3.1 5.8-5l.1 8.1h7.2V39.5h-7.3v7.7zm-17.5 40.1h-1.9c-5.3.2-10.4-2.1-13.9-6.1-3.7-4.1-5.8-9.5-5.7-15-.2-5.5 1.8-10.8 5.5-14.9 3.6-4 8.7-6.2 14-6 5.2-.2 10.3 2 13.7 5.9 3.7 4.1 5.6 9.4 5.5 14.9.1 5.5-1.8 10.9-5.5 15-2.9 3.6-7.1 5.8-11.7 6.2zM454.8 64l-9.2-2.9c-2.5-.6-4.9-1.8-7-3.4-1.5-1.1-2.4-2.9-2.4-4.8v-.1a5.82 5.82 0 0 1 2.8-5c2-1.5 4.7-2.2 8.3-2.2 5.6 0 9.6 1.7 12.2 5.2l1.2 1.6 5.6-4.5.2-.1-1-1.5c-3.5-5.2-9.6-7.8-18.1-7.8-5.5 0-9.9 1.3-13.2 3.9-3.3 2.5-5.2 6.4-5.2 10.6-.1 3.5 1.3 6.8 3.8 9.2 2.4 2.3 5.3 4 8.5 4.9l9.1 2.8c2.5.7 4.9 2 7 3.7a6.55 6.55 0 0 1 2.4 5.4c.1 2.4-1 4.7-3 6.2-2.2 1.6-5.1 2.4-9 2.4-3.1.1-6.1-.5-8.9-1.7-2.2-.9-4.1-2.4-5.4-4.4l-1.2-2-5.9 5 1.2 1.6c4.3 5.8 11.1 8.8 20.2 8.8 5.8 0 10.4-1.4 13.9-4.2 3.6-2.8 5.6-7.2 5.4-11.8.1-3.6-1.2-7-3.7-9.6-2.5-2.4-5.4-4.2-8.6-5.3zm60.6-19.5h0c-4.1-4.1-9.5-6.1-16.1-6.1-6.1 0-11.1 1.9-14.8 5.7V17.6h-7.3v76.1h7.3l.3-32.4c0-5 1.3-8.9 3.9-11.6s6.1-4.1 10.8-4.1 8.2 1.3 10.8 4.1 3.9 6.6 3.9 11.6v32.4h7.3V60.4c0-6.5-2.1-11.8-6.1-15.9z" fill="#fff"/></svg>